<svg width="1440" height="900" viewBox="0 0 1440 900" fill="none" xmlns="http://www.w3.org/2000/svg">
  <defs>
    <linearGradient id="g1" x1="0" y1="0" x2="0" y2="1">
      <stop offset="0%" stop-color="#0B0B0D"/>
      <stop offset="100%" stop-color="#0F1013"/>
    </linearGradient>
    <linearGradient id="grid" x1="0" y1="0" x2="1" y2="0">
      <stop offset="0" stop-color="rgba(255,255,255,0.08)"/>
      <stop offset="1" stop-color="rgba(255,255,255,0.02)"/>
    </linearGradient>
  </defs>
  <rect width="1440" height="900" fill="url(#g1)"/>
  <g opacity="0.18">
    <!-- vertical lines -->
    
    <g stroke="url(#grid)" stroke-width="1">
      
      
      <path d="M40 0 V900"/>
      <path d="M120 0 V900"/>
      <path d="M200 0 V900"/>
      <path d="M280 0 V900"/>
      <path d="M360 0 V900"/>
      <path d="M440 0 V900"/>
      <path d="M520 0 V900"/>
      <path d="M600 0 V900"/>
      <path d="M680 0 V900"/>
      <path d="M760 0 V900"/>
      <path d="M840 0 V900"/>
      <path d="M920 0 V900"/>
      <path d="M1000 0 V900"/>
      <path d="M1080 0 V900"/>
      <path d="M1160 0 V900"/>
      <path d="M1240 0 V900"/>
      <path d="M1320 0 V900"/>
    </g>
    <!-- horizontal lines -->
    <g stroke="url(#grid)" stroke-width="1">
      
      <path d="M0 40 H1440"/>
      <path d="M0 120 H1440"/>
      <path d="M0 200 H1440"/>
      <path d="M0 280 H1440"/>
      <path d="M0 360 H1440"/>
      <path d="M0 440 H1440"/>
      <path d="M0 520 H1440"/>
      <path d="M0 600 H1440"/>
      <path d="M0 680 H1440"/>
      <path d="M0 760 H1440"/>
      <path d="M0 840 H1440"/>
    </g>
  </g>
</svg>

